<svg width="61" height="61" viewBox="0 0 61 61" fill="none" xmlns="http://www.w3.org/2000/svg">
<path d="M25.5655 19.6195L16.4364 36.7133C14.2396 40.8268 18.404 45.3919 23.0762 43.9921L30.5289 41.7594L37.9174 43.9813C42.5869 45.3857 46.7564 40.827 44.5667 36.7113L35.4772 19.6266C33.4384 15.7944 27.6105 15.7902 25.5655 19.6195Z" fill="white" fill-opacity="0.15"/>
<path d="M30.5289 41.7594L37.9174 43.9813C42.5869 45.3857 46.7564 40.827 44.5667 36.7113L35.4772 19.6266C33.4384 15.7944 27.6105 15.7902 25.5655 19.6195L16.4364 36.7133C14.2396 40.8268 18.404 45.3919 23.0762 43.9921L30.5289 41.7594ZM30.5289 41.7594L30.5289 36.3125" stroke="white" stroke-width="2.75" stroke-linecap="round"/>
</svg>
