<svg width="428" height="368" viewBox="0 0 428 368" fill="none" xmlns="http://www.w3.org/2000/svg">
<path d="M367.496 0C400.633 9.23822e-05 427.496 26.863 427.496 60V257.499C427.496 266.126 416.646 271.331 408.603 268.211C401.595 265.492 393.973 264 386.004 264C351.486 264 323.504 291.982 323.504 326.5C323.504 334.471 324.996 342.094 327.717 349.105C330.838 357.148 325.633 368 317.005 368H60C26.8629 368 1.15982e-06 341.137 0 308V60C4.1238e-06 26.8629 26.8629 0 60 0H367.496Z" fill="#F3F3F3"/>
<path d="M367.496 0C400.633 9.23822e-05 427.496 26.863 427.496 60V257.499C427.496 266.126 416.646 271.331 408.603 268.211C401.595 265.492 393.973 264 386.004 264C351.486 264 323.504 291.982 323.504 326.5C323.504 334.471 324.996 342.094 327.717 349.105C330.838 357.148 325.633 368 317.005 368H60C26.8629 368 1.15982e-06 341.137 0 308V60C4.1238e-06 26.8629 26.8629 0 60 0H367.496Z" fill="url(#paint0_radial_848_2114)"/>
<path d="M367.496 0C400.633 9.23822e-05 427.496 26.863 427.496 60V257.499C427.496 266.126 416.646 271.331 408.603 268.211C401.595 265.492 393.973 264 386.004 264C351.486 264 323.504 291.982 323.504 326.5C323.504 334.471 324.996 342.094 327.717 349.105C330.838 357.148 325.633 368 317.005 368H60C26.8629 368 1.15982e-06 341.137 0 308V60C4.1238e-06 26.8629 26.8629 0 60 0H367.496Z" fill="url(#paint1_radial_848_2114)"/>
<path d="M367.496 0C400.633 9.23822e-05 427.496 26.863 427.496 60V257.499C427.496 266.126 416.646 271.331 408.603 268.211C401.595 265.492 393.973 264 386.004 264C351.486 264 323.504 291.982 323.504 326.5C323.504 334.471 324.996 342.094 327.717 349.105C330.838 357.148 325.633 368 317.005 368H60C26.8629 368 1.15982e-06 341.137 0 308V60C4.1238e-06 26.8629 26.8629 0 60 0H367.496Z" fill="url(#paint2_radial_848_2114)"/>
<defs>
<radialGradient id="paint0_radial_848_2114" cx="0" cy="0" r="1" gradientUnits="userSpaceOnUse" gradientTransform="translate(214 23) rotate(90) scale(345 400.777)">
<stop stop-color="#9136FF"/>
<stop offset="1" stop-color="white" stop-opacity="0"/>
</radialGradient>
<radialGradient id="paint1_radial_848_2114" cx="0" cy="0" r="1" gradientUnits="userSpaceOnUse" gradientTransform="translate(377.5 -33) rotate(112.213) scale(433.146 503.175)">
<stop stop-color="#2ED36A"/>
<stop offset="1" stop-color="white" stop-opacity="0"/>
</radialGradient>
<radialGradient id="paint2_radial_848_2114" cx="0" cy="0" r="1" gradientUnits="userSpaceOnUse" gradientTransform="translate(214 -41.5) rotate(90) scale(225.5 261.957)">
<stop stop-color="#E188FF"/>
<stop offset="1" stop-color="white" stop-opacity="0"/>
</radialGradient>
</defs>
</svg>
