<svg width="96" height="96" viewBox="0 0 96 96" fill="none" xmlns="http://www.w3.org/2000/svg">
<circle cx="48" cy="48" r="47.5" fill="white" stroke="#D2CCD5"/>
<path d="M29.7708 41.6975C31.1161 36.2797 35.412 32.0907 40.8611 30.8832L41.7689 30.6821C45.8732 29.7726 50.1268 29.7726 54.2312 30.6821L55.1389 30.8832C60.588 32.0907 64.8839 36.2797 66.2292 41.6975C67.2569 45.8363 67.2569 50.1637 66.2292 54.3025C64.8839 59.7203 60.588 63.9093 55.1389 65.1168L54.2311 65.3179C50.1268 66.2274 45.8732 66.2274 41.7689 65.3179L40.8611 65.1168C35.412 63.9093 31.1161 59.7203 29.7708 54.3025C28.7431 50.1637 28.7431 45.8363 29.7708 41.6975Z" fill="#363853" fill-opacity="0.15"/>
<path d="M32.6045 37.0008L44.1649 45.2601C46.4591 46.8991 49.5409 46.8991 51.835 45.2601L63.3955 37.0008M29.7708 54.3025C28.7431 50.1637 28.7431 45.8363 29.7708 41.6975C31.1161 36.2797 35.412 32.0907 40.8611 30.8832L41.7689 30.6821C45.8732 29.7726 50.1268 29.7726 54.2312 30.6821L55.1389 30.8832C60.588 32.0907 64.8839 36.2797 66.2292 41.6975C67.2569 45.8363 67.2569 50.1637 66.2292 54.3025C64.8839 59.7203 60.588 63.9093 55.1389 65.1168L54.2311 65.3179C50.1268 66.2274 45.8732 66.2274 41.7689 65.3179L40.8611 65.1168C35.412 63.9093 31.1161 59.7203 29.7708 54.3025Z" stroke="#363853" stroke-width="3" stroke-linecap="round"/>
</svg>
