<?xml version="1.0" encoding="utf-8"?><svg viewBox="0 0 428 368" xmlns="http://www.w3.org/2000/svg" xmlns:xlink="http://www.w3.org/1999/xlink"><style>:root>svg{display:none}:root>svg:target{display:block}</style><svg viewBox="0 0 33 33" id="arrow-right" xmlns="http://www.w3.org/2000/svg"><rect width="33" height="33" rx="16.5"/><path d="M8.667 16h14.667m0 0-6.118-5.333M23.334 16l-6.118 5.334"/></svg><svg viewBox="0 0 29 29" id="phone" xmlns="http://www.w3.org/2000/svg"><path d="M17.57 18.125c-1.695 0-3.07 1.246-3.07 2.783 0 .349.053.696.158 1.031l.1.323c.476 1.521 1.855 2.67 3.567 2.972a9.308 9.308 0 0 0 3.225 0c1.712-.302 3.091-1.451 3.566-2.972l.101-.323c.105-.335.158-.682.158-1.03 0-1.538-1.375-2.784-3.07-2.784H17.57Zm-6.695-11.43c0-1.695-1.246-3.07-2.783-3.07-.349 0-.696.053-1.031.158l-.323.1c-1.521.476-2.67 1.855-2.972 3.567a9.308 9.308 0 0 0 0 3.225c.301 1.712 1.45 3.091 2.972 3.566l.323.101c.335.105.682.158 1.03.158 1.538 0 2.784-1.375 2.784-3.07V6.695Z" fill-opacity=".15"/><path d="M18.325 25.234a9.308 9.308 0 0 0 3.225 0c1.712-.302 3.091-1.451 3.566-2.972l.101-.323c.105-.335.158-.682.158-1.03 0-1.538-1.375-2.784-3.07-2.784H17.57c-1.695 0-3.07 1.246-3.07 2.783 0 .349.053.696.158 1.031l.1.323c.476 1.521 1.855 2.67 3.567 2.972Zm0 0a18.174 18.174 0 0 1-14.56-14.559m0 0a9.308 9.308 0 0 1 0-3.225c.302-1.712 1.452-3.091 2.973-3.566l.323-.101a3.456 3.456 0 0 1 1.03-.158c1.538 0 2.784 1.375 2.784 3.07v4.735c0 1.695-1.246 3.07-2.783 3.07-.349 0-.696-.053-1.031-.158l-.323-.1c-1.521-.476-2.67-1.855-2.972-3.567Z"/></svg><svg viewBox="0 0 61 61" id="send" xmlns="http://www.w3.org/2000/svg"><path d="m25.566 19.62-9.13 17.093c-2.196 4.114 1.968 8.679 6.64 7.28l7.453-2.234 7.388 2.222c4.67 1.405 8.84-3.154 6.65-7.27l-9.09-17.084c-2.039-3.833-7.866-3.837-9.911-.008Z" fill-opacity=".15"/><path d="m30.529 41.76 7.388 2.221c4.67 1.405 8.84-3.154 6.65-7.27l-9.09-17.084c-2.039-3.833-7.866-3.837-9.911-.008l-9.13 17.094c-2.196 4.114 1.968 8.679 6.64 7.28l7.453-2.234Zm0 0v-5.447"/></svg><svg viewBox="0 0 428 368" id="subtract" xmlns="http://www.w3.org/2000/svg"><path d="M367.496 0c33.137 0 60 26.863 60 60v197.499c0 8.627-10.85 13.832-18.893 10.712A62.349 62.349 0 0 0 386.004 264c-34.518 0-62.5 27.982-62.5 62.5a62.344 62.344 0 0 0 4.213 22.605c3.121 8.043-2.084 18.895-10.712 18.895H60c-33.137 0-60-26.863-60-60V60C0 26.863 26.863 0 60 0h307.496Z"/><path d="M367.496 0c33.137 0 60 26.863 60 60v197.499c0 8.627-10.85 13.832-18.893 10.712A62.349 62.349 0 0 0 386.004 264c-34.518 0-62.5 27.982-62.5 62.5a62.344 62.344 0 0 0 4.213 22.605c3.121 8.043-2.084 18.895-10.712 18.895H60c-33.137 0-60-26.863-60-60V60C0 26.863 26.863 0 60 0h307.496Z"/><path d="M367.496 0c33.137 0 60 26.863 60 60v197.499c0 8.627-10.85 13.832-18.893 10.712A62.349 62.349 0 0 0 386.004 264c-34.518 0-62.5 27.982-62.5 62.5a62.344 62.344 0 0 0 4.213 22.605c3.121 8.043-2.084 18.895-10.712 18.895H60c-33.137 0-60-26.863-60-60V60C0 26.863 26.863 0 60 0h307.496Z"/><path d="M367.496 0c33.137 0 60 26.863 60 60v197.499c0 8.627-10.85 13.832-18.893 10.712A62.349 62.349 0 0 0 386.004 264c-34.518 0-62.5 27.982-62.5 62.5a62.344 62.344 0 0 0 4.213 22.605c3.121 8.043-2.084 18.895-10.712 18.895H60c-33.137 0-60-26.863-60-60V60C0 26.863 26.863 0 60 0h307.496Z"/></svg><svg viewBox="0 0 403 220" id="subtract-m" xmlns="http://www.w3.org/2000/svg"><path d="M403 89.747c0 17.126-23.81 28.934-40.937 28.934-33.167 0-60.054 26.887-60.054 60.054 0 17.192-11.884 41.265-29.075 41.265H30c-16.569 0-30-13.431-30-30V30C0 13.431 13.431 0 30 0h343c16.569 0 30 13.431 30 30v59.747ZM358.086 217.59c.651.066 1.307.117 1.968.15l-.964-.06a41.127 41.127 0 0 1-1.004-.09Zm42.921-35.866a39.393 39.393 0 0 1 .061-.979l-.061.979Z"/><path d="M403 89.747c0 17.126-23.81 28.934-40.937 28.934-33.167 0-60.054 26.887-60.054 60.054 0 17.192-11.884 41.265-29.075 41.265H30c-16.569 0-30-13.431-30-30V30C0 13.431 13.431 0 30 0h343c16.569 0 30 13.431 30 30v59.747ZM358.086 217.59c.651.066 1.307.117 1.968.15l-.964-.06a41.127 41.127 0 0 1-1.004-.09Zm42.921-35.866a39.393 39.393 0 0 1 .061-.979l-.061.979Z"/><path d="M403 89.747c0 17.126-23.81 28.934-40.937 28.934-33.167 0-60.054 26.887-60.054 60.054 0 17.192-11.884 41.265-29.075 41.265H30c-16.569 0-30-13.431-30-30V30C0 13.431 13.431 0 30 0h343c16.569 0 30 13.431 30 30v59.747ZM358.086 217.59c.651.066 1.307.117 1.968.15l-.964-.06a41.127 41.127 0 0 1-1.004-.09Zm42.921-35.866a39.393 39.393 0 0 1 .061-.979l-.061.979Z"/><path d="M403 89.747c0 17.126-23.81 28.934-40.937 28.934-33.167 0-60.054 26.887-60.054 60.054 0 17.192-11.884 41.265-29.075 41.265H30c-16.569 0-30-13.431-30-30V30C0 13.431 13.431 0 30 0h343c16.569 0 30 13.431 30 30v59.747ZM358.086 217.59c.651.066 1.307.117 1.968.15l-.964-.06a41.127 41.127 0 0 1-1.004-.09Zm42.921-35.866a39.393 39.393 0 0 1 .061-.979l-.061.979Z"/></svg><svg viewBox="0 0 61 61" id="tel" xmlns="http://www.w3.org/2000/svg"><path d="M34.417 35.125c-2.163 0-3.917 1.59-3.917 3.551 0 .445.068.887.201 1.315l.129.412c.606 1.94 2.366 3.407 4.55 3.792 1.359.24 2.756.24 4.115 0 2.184-.385 3.944-1.851 4.55-3.792l.129-.412a4.41 4.41 0 0 0 .201-1.315c0-1.961-1.754-3.551-3.917-3.551h-6.04Zm-8.542-14.582c0-2.164-1.59-3.918-3.551-3.918a4.41 4.41 0 0 0-1.315.201l-.412.129c-1.94.606-3.408 2.366-3.792 4.55a11.875 11.875 0 0 0 0 4.115c.384 2.184 1.851 3.944 3.792 4.55l.412.129c.428.133.87.201 1.315.201 1.961 0 3.551-1.754 3.551-3.918v-6.04Z" fill-opacity=".15"/><path d="M35.38 44.195c1.359.24 2.756.24 4.115 0 2.184-.385 3.944-1.851 4.55-3.792l.129-.412a4.41 4.41 0 0 0 .201-1.315c0-1.961-1.754-3.551-3.917-3.551h-6.04c-2.164 0-3.918 1.59-3.918 3.551 0 .445.068.887.201 1.315l.129.412c.606 1.94 2.366 3.407 4.55 3.792Zm0 0A23.188 23.188 0 0 1 16.805 25.62m0 0a11.875 11.875 0 0 1 0-4.115c.384-2.184 1.851-3.944 3.792-4.55l.412-.129a4.41 4.41 0 0 1 1.315-.201c1.961 0 3.551 1.754 3.551 3.918v6.04c0 2.163-1.59 3.917-3.551 3.917a4.41 4.41 0 0 1-1.315-.201l-.412-.129c-1.94-.606-3.408-2.366-3.792-4.55Z"/></svg></svg>