<?xml version="1.0" encoding="utf-8"?><svg viewBox="0 0 29 29" xmlns="http://www.w3.org/2000/svg" xmlns:xlink="http://www.w3.org/1999/xlink"><style>:root>svg{display:none}:root>svg:target{display:block}</style><svg viewBox="0 0 29 29" id="phone" xmlns="http://www.w3.org/2000/svg"><path d="M17.57 18.125c-1.695 0-3.07 1.246-3.07 2.783 0 .349.053.696.158 1.031l.1.323c.476 1.521 1.855 2.67 3.567 2.972a9.308 9.308 0 0 0 3.225 0c1.712-.302 3.091-1.451 3.566-2.972l.101-.323c.105-.335.158-.682.158-1.03 0-1.538-1.375-2.784-3.07-2.784H17.57Zm-6.695-11.43c0-1.695-1.246-3.07-2.783-3.07-.349 0-.696.053-1.031.158l-.323.1c-1.521.476-2.67 1.855-2.972 3.567a9.308 9.308 0 0 0 0 3.225c.301 1.712 1.45 3.091 2.972 3.566l.323.101c.335.105.682.158 1.03.158 1.538 0 2.784-1.375 2.784-3.07V6.695Z" fill-opacity=".15"/><path d="M18.325 25.234a9.308 9.308 0 0 0 3.225 0c1.712-.302 3.091-1.451 3.566-2.972l.101-.323c.105-.335.158-.682.158-1.03 0-1.538-1.375-2.784-3.07-2.784H17.57c-1.695 0-3.07 1.246-3.07 2.783 0 .349.053.696.158 1.031l.1.323c.476 1.521 1.855 2.67 3.567 2.972Zm0 0a18.174 18.174 0 0 1-14.56-14.559m0 0a9.308 9.308 0 0 1 0-3.225c.302-1.712 1.452-3.091 2.973-3.566l.323-.101a3.456 3.456 0 0 1 1.03-.158c1.538 0 2.784 1.375 2.784 3.07v4.735c0 1.695-1.246 3.07-2.783 3.07-.349 0-.696-.053-1.031-.158l-.323-.1c-1.521-.476-2.67-1.855-2.972-3.567Z"/></svg></svg>