<svg width="29" height="29" viewBox="0 0 29 29" fill="none" xmlns="http://www.w3.org/2000/svg">
<path d="M17.5705 18.1249C15.8747 18.1249 14.5 19.371 14.5 20.9082C14.5 21.2568 14.5531 21.6037 14.6578 21.9391L14.7586 22.2618C15.2336 23.783 16.6127 24.9325 18.3248 25.2342C19.39 25.4219 20.4851 25.4219 21.5502 25.2342C23.2623 24.9325 24.6414 23.783 25.1164 22.2618L25.2172 21.9391C25.3219 21.6037 25.375 21.2568 25.375 20.9082C25.375 19.371 24.0003 18.1249 22.3046 18.1249H17.5705Z" fill="#E6D2FF" fill-opacity="0.15"/>
<path d="M10.875 6.69539C10.875 4.99963 9.6289 3.62494 8.09173 3.62494C7.74315 3.62494 7.39624 3.67806 7.06084 3.78279L6.73816 3.88354C5.21691 4.35855 4.06747 5.73761 3.76578 7.4497C3.57808 8.51489 3.57807 9.60999 3.76577 10.6752C4.06747 12.3873 5.21691 13.7663 6.73816 14.2413L7.06084 14.3421C7.39624 14.4468 7.74315 14.4999 8.09173 14.4999C9.62889 14.4999 10.875 13.1252 10.875 11.4295L10.875 6.69539Z" fill="#E6D2FF" fill-opacity="0.15"/>
<path d="M18.3248 25.2342C19.39 25.4219 20.4851 25.4219 21.5502 25.2342C23.2623 24.9325 24.6414 23.783 25.1164 22.2618L25.2172 21.9391C25.3219 21.6037 25.375 21.2568 25.375 20.9082C25.375 19.371 24.0003 18.1249 22.3046 18.1249H17.5705C15.8747 18.1249 14.5 19.371 14.5 20.9082C14.5 21.2568 14.5531 21.6037 14.6578 21.9391L14.7586 22.2618C15.2336 23.783 16.6127 24.9325 18.3248 25.2342ZM18.3248 25.2342C10.9257 23.8632 5.13672 18.0742 3.76577 10.6752M3.76577 10.6752C3.57807 9.60999 3.57808 8.51489 3.76578 7.4497C4.06747 5.73761 5.21691 4.35855 6.73816 3.88354L7.06084 3.78279C7.39624 3.67806 7.74315 3.62494 8.09173 3.62494C9.6289 3.62494 10.875 4.99963 10.875 6.69539L10.875 11.4295C10.875 13.1252 9.62889 14.4999 8.09173 14.4999C7.74315 14.4999 7.39624 14.4468 7.06084 14.3421L6.73816 14.2413C5.21691 13.7663 4.06747 12.3873 3.76577 10.6752Z" stroke="white" stroke-width="1.5"/>
</svg>
