<svg width="403" height="220" viewBox="0 0 403 220" fill="none" xmlns="http://www.w3.org/2000/svg">
<path d="M403 89.7466C403 106.873 379.19 118.681 362.063 118.681C328.896 118.681 302.009 145.568 302.009 178.735C302.009 195.927 290.125 220 272.934 220H30C13.4315 220 0 206.569 0 190V30C0 13.4315 13.4315 0 30 0H373C389.569 0 403 13.4315 403 30V89.7466ZM358.086 217.59C358.737 217.656 359.393 217.707 360.054 217.74L359.09 217.68C358.754 217.654 358.419 217.624 358.086 217.59ZM401.007 181.724C400.932 182.713 400.819 183.692 400.672 184.66C400.867 183.375 401.001 182.069 401.068 180.745L401.007 181.724Z" fill="#F3F3F3"/>
<path d="M403 89.7466C403 106.873 379.19 118.681 362.063 118.681C328.896 118.681 302.009 145.568 302.009 178.735C302.009 195.927 290.125 220 272.934 220H30C13.4315 220 0 206.569 0 190V30C0 13.4315 13.4315 0 30 0H373C389.569 0 403 13.4315 403 30V89.7466ZM358.086 217.59C358.737 217.656 359.393 217.707 360.054 217.74L359.09 217.68C358.754 217.654 358.419 217.624 358.086 217.59ZM401.007 181.724C400.932 182.713 400.819 183.692 400.672 184.66C400.867 183.375 401.001 182.069 401.068 180.745L401.007 181.724Z" fill="url(#paint0_radial_868_3271)"/>
<path d="M403 89.7466C403 106.873 379.19 118.681 362.063 118.681C328.896 118.681 302.009 145.568 302.009 178.735C302.009 195.927 290.125 220 272.934 220H30C13.4315 220 0 206.569 0 190V30C0 13.4315 13.4315 0 30 0H373C389.569 0 403 13.4315 403 30V89.7466ZM358.086 217.59C358.737 217.656 359.393 217.707 360.054 217.74L359.09 217.68C358.754 217.654 358.419 217.624 358.086 217.59ZM401.007 181.724C400.932 182.713 400.819 183.692 400.672 184.66C400.867 183.375 401.001 182.069 401.068 180.745L401.007 181.724Z" fill="url(#paint1_radial_868_3271)"/>
<path d="M403 89.7466C403 106.873 379.19 118.681 362.063 118.681C328.896 118.681 302.009 145.568 302.009 178.735C302.009 195.927 290.125 220 272.934 220H30C13.4315 220 0 206.569 0 190V30C0 13.4315 13.4315 0 30 0H373C389.569 0 403 13.4315 403 30V89.7466ZM358.086 217.59C358.737 217.656 359.393 217.707 360.054 217.74L359.09 217.68C358.754 217.654 358.419 217.624 358.086 217.59ZM401.007 181.724C400.932 182.713 400.819 183.692 400.672 184.66C400.867 183.375 401.001 182.069 401.068 180.745L401.007 181.724Z" fill="url(#paint2_radial_868_3271)"/>
<defs>
<radialGradient id="paint0_radial_868_3271" cx="0" cy="0" r="1" gradientUnits="userSpaceOnUse" gradientTransform="translate(201.793 21.645) rotate(90) scale(324.674 377.166)">
<stop stop-color="#9136FF"/>
<stop offset="1" stop-color="white" stop-opacity="0"/>
</radialGradient>
<radialGradient id="paint1_radial_868_3271" cx="0" cy="0" r="1" gradientUnits="userSpaceOnUse" gradientTransform="translate(355.66 -31.0558) rotate(112.213) scale(407.628 473.53)">
<stop stop-color="#2ED36A"/>
<stop offset="1" stop-color="white" stop-opacity="0"/>
</radialGradient>
<radialGradient id="paint2_radial_868_3271" cx="0" cy="0" r="1" gradientUnits="userSpaceOnUse" gradientTransform="translate(201.793 -39.055) rotate(90) scale(212.215 246.524)">
<stop stop-color="#E188FF"/>
<stop offset="1" stop-color="white" stop-opacity="0"/>
</radialGradient>
</defs>
</svg>
