<svg width="61" height="61" viewBox="0 0 61 61" fill="none" xmlns="http://www.w3.org/2000/svg">
<path d="M34.4175 35.125C32.2539 35.125 30.5 36.7149 30.5 38.6761C30.5 39.1208 30.5678 39.5634 30.7014 39.9913L30.8299 40.403C31.436 42.3439 33.1955 43.8105 35.3799 44.1954C36.7389 44.4349 38.1361 44.4349 39.4951 44.1954C41.6795 43.8105 43.439 42.3439 44.0451 40.403L44.1736 39.9913C44.3072 39.5634 44.375 39.1208 44.375 38.6761C44.375 36.7149 42.6211 35.125 40.4575 35.125H34.4175Z" fill="white" fill-opacity="0.15"/>
<path d="M25.875 20.5425C25.875 18.3789 24.2851 16.625 22.3239 16.625C21.8792 16.625 21.4366 16.6928 21.0087 16.8264L20.597 16.9549C18.6561 17.561 17.1895 19.3205 16.8046 21.5049C16.5651 22.8639 16.5651 24.2611 16.8046 25.6201C17.1895 27.8045 18.6561 29.564 20.597 30.1701L21.0087 30.2986C21.4366 30.4322 21.8792 30.5 22.3239 30.5C24.2851 30.5 25.875 28.7461 25.875 26.5825L25.875 20.5425Z" fill="white" fill-opacity="0.15"/>
<path d="M35.3799 44.1954C36.7389 44.4349 38.1361 44.4349 39.4951 44.1954C41.6795 43.8105 43.439 42.3439 44.0451 40.403L44.1736 39.9913C44.3072 39.5634 44.375 39.1208 44.375 38.6761C44.375 36.7149 42.6211 35.125 40.4575 35.125H34.4175C32.2539 35.125 30.5 36.7149 30.5 38.6761C30.5 39.1208 30.5678 39.5634 30.7014 39.9913L30.8299 40.403C31.436 42.3439 33.1955 43.8105 35.3799 44.1954ZM35.3799 44.1954C25.9397 42.4463 18.5537 35.0603 16.8046 25.6201M16.8046 25.6201C16.5651 24.2611 16.5651 22.8639 16.8046 21.5049C17.1895 19.3205 18.6561 17.561 20.597 16.9549L21.0087 16.8264C21.4366 16.6928 21.8792 16.625 22.3239 16.625C24.2851 16.625 25.875 18.3789 25.875 20.5425L25.875 26.5825C25.875 28.7461 24.2851 30.5 22.3239 30.5C21.8792 30.5 21.4366 30.4322 21.0087 30.2986L20.597 30.1701C18.6561 29.564 17.1895 27.8045 16.8046 25.6201Z" stroke="white" stroke-width="2.3125"/>
</svg>
